HIERARCHY
ROOT Hips
{
	OFFSET 0.000000 0.000000 0.000000 
	CHANNELS 6 Xposition Yposition Zposition Zrotation Yrotation Xrotation
	JOINT LeftUpLeg
	{
		OFFSET 1.363060 -1.794630 0.839290 
		CHANNELS 3 Zrotation Yrotation Xrotation
		JOINT LeftLeg
		{
			OFFSET 2.448110 -6.726130 0.000000 
			CHANNELS 3 Zrotation Yrotation Xrotation
			JOINT LeftFoot
			{
				OFFSET 2.562200 -7.039590 0.000000 
				CHANNELS 3 Zrotation Yrotation Xrotation
				JOINT LeftToeBase
				{
					OFFSET 0.157640 -0.433110 2.322550 
					CHANNELS 3 Zrotation Yrotation Xrotation
					End Site
					{
						OFFSET 0.000000 0.000000 0.000000 
					}
				}
			}
		}
	}
	JOINT RightUpLeg
	{
		OFFSET -1.305520 -1.794630 0.839290 
		CHANNELS 3 Zrotation Yrotation Xrotation
		JOINT RightLeg
		{
			OFFSET -2.542530 -6.985550 0.000000 
			CHANNELS 3 Zrotation Yrotation Xrotation
			JOINT RightFoot
			{
				OFFSET -2.568260 -7.056230 0.000000 
				CHANNELS 3 Zrotation Yrotation Xrotation
				JOINT RightToeBase
				{
					OFFSET -0.164730 -0.452590 2.363150 
					CHANNELS 3 Zrotation Yrotation Xrotation
					End Site
					{
						OFFSET 0.000000 0.000000 0.000000 
					}
				}
			}
		}
	}
	JOINT Spine
	{
		OFFSET 0.028270 2.035590 -0.193380 
		CHANNELS 3 Zrotation Yrotation Xrotation
		JOINT Spine1
		{
			OFFSET 0.056720 2.048850 -0.042750 
			CHANNELS 3 Zrotation Yrotation Xrotation
			JOINT Neck1
			{
				OFFSET -0.054170 1.746240 0.172020 
				CHANNELS 3 Zrotation Yrotation Xrotation
				JOINT Head
				{
					OFFSET 0.104070 1.761360 -0.123970 
					CHANNELS 3 Zrotation Yrotation Xrotation
					End Site
					{
						OFFSET 0.000000 0.000000 0.000000 
					}
				}
			}
			JOINT LeftArm
			{
				OFFSET 3.362410 1.200890 -0.311210 
				CHANNELS 3 Zrotation Yrotation Xrotation
				JOINT LeftForeArm
				{
					OFFSET 4.983000 -0.000000 -0.000000 
					CHANNELS 3 Zrotation Yrotation Xrotation
					JOINT LeftHand
					{
						OFFSET 3.483560 -0.000000 -0.000000 
						CHANNELS 3 Zrotation Yrotation Xrotation
						JOINT LeftHandIndex1
						{
							OFFSET 0.715260 -0.000000 -0.000000 
							CHANNELS 3 Zrotation Yrotation Xrotation
							End Site
							{
								OFFSET 0.000000 0.000000 0.000000 
							}
						}
					}
				}
			}
			JOINT RightArm
			{
				OFFSET -3.136600 1.374050 -0.404650 
				CHANNELS 3 Zrotation Yrotation Xrotation
				JOINT RightForeArm
				{
					OFFSET -5.241900 -0.000000 -0.000000 
					CHANNELS 3 Zrotation Yrotation Xrotation
					JOINT RightHand
					{
						OFFSET -3.444170 -0.000000 -0.000000 
						CHANNELS 3 Zrotation Yrotation Xrotation
						JOINT RightHandIndex1
						{
							OFFSET -0.622530 -0.000000 -0.000000 
							CHANNELS 3 Zrotation Yrotation Xrotation
							End Site
							{
								OFFSET 0.000000 0.000000 0.000000 
							}
						}
					}
				}
			}
		}
	}
}
MOTION
Frames: 15
Frame Time: 0.041667
-0.616632 18.306654 5.749147 1.868275 -3.023932 3.114511 -15.748122 -9.119417 -3.355922 0.428474 6.268295 20.318963 -0.992501 8.246486 -14.726021 8.495000 -16.471500 -54.326600 2.998304 1.851784 -2.217396 0.093037 0.468885 1.365681 0.237489 -1.188742 5.880138 0.000000 0.000000 0.000000 -10.625858 1.169189 5.402944 2.267013 1.642649 -12.515034 7.896725 -6.041491 32.900383 1.387600 -1.707100 10.120300 -91.873030 12.254957 24.830733 24.986277 -33.537430 -6.563881 0.594112 0.162049 4.628843 -7.125000 0.000000 0.000000 94.922572 -16.597427 16.665076 -35.146550 42.257232 -11.400534 1.174928 -3.241450 4.918859 7.125000 0.000000 0.000000 
-0.616043 18.306752 5.751109 1.873132 -3.053127 3.177541 -15.751208 -9.152247 -3.373774 0.425444 6.273705 20.319505 -0.993782 8.269886 -14.776983 8.491900 -16.469400 -54.315600 3.000358 1.851287 -2.224587 0.093310 0.465835 1.365162 0.236590 -1.191244 5.878135 0.000000 0.000000 0.000000 -10.736539 1.153021 5.117750 2.270165 1.637809 -12.445234 7.923613 -6.066151 32.944219 1.390000 -1.714200 10.122100 -91.885993 12.375042 24.907630 25.045004 -33.586002 -6.576707 0.583658 0.174207 4.633248 -7.125000 0.000000 0.000000 94.961271 -16.634819 16.653837 -35.163747 42.268127 -11.414678 1.178513 -3.242668 4.963692 7.125000 0.000000 0.000000 
-0.615356 18.307144 5.753758 1.899504 -3.082493 3.226247 -15.767429 -9.139397 -3.394577 0.423128 6.275633 20.312460 -0.991707 8.268687 -14.790939 8.491300 -16.469000 -54.313800 3.000015 1.851309 -2.229185 0.093747 0.464194 1.365065 0.236139 -1.192350 5.876599 0.000000 0.000000 0.000000 -10.923169 1.150508 4.905797 2.278095 1.640285 -12.383028 8.186709 -6.176877 33.045227 1.447100 -1.731200 10.152300 -91.881730 12.475360 24.973442 25.108229 -33.644466 -6.596621 0.576552 0.179453 4.722345 -7.125000 0.000000 0.000000 95.028873 -16.676190 16.629770 -35.187144 42.282016 -11.426045 1.176731 -3.242260 4.980158 7.125000 0.000000 0.000000 
-0.615062 18.307537 5.756996 1.918652 -3.076221 3.277840 -15.784174 -9.142713 -3.403275 0.419861 6.271936 20.293487 -0.999243 8.289402 -14.755093 8.492600 -16.469900 -54.318300 3.001804 1.850643 -2.235013 0.094003 0.461523 1.364479 0.235351 -1.194622 5.874938 0.000000 0.000000 0.000000 -11.005937 1.131763 4.684779 2.280248 1.635652 -12.281309 8.506217 -6.283660 33.039827 1.526000 -1.747800 10.141600 -91.882517 12.572992 25.053460 25.166436 -33.696366 -6.621114 0.575758 0.182815 4.664362 -7.125000 0.000000 0.000000 95.047881 -16.740504 16.636994 -35.217675 42.281259 -11.425598 1.185910 -3.237346 5.033414 7.125000 0.000000 0.000000 
-0.615160 18.308420 5.760037 1.940175 -3.052632 3.361192 -15.801155 -9.196233 -3.424240 0.414135 6.265940 20.265850 -1.003185 8.307251 -14.757887 8.467400 -16.452500 -54.229300 3.004481 1.849621 -2.241966 0.094240 0.458152 1.363636 0.234330 -1.197591 5.873016 0.000000 0.000000 0.000000 -11.068839 1.097539 4.433665 2.310939 1.626485 -12.155096 8.551676 -6.281503 32.970519 1.540800 -1.746900 10.102200 -91.890666 12.641413 25.147093 25.217103 -33.741266 -6.652876 0.583880 0.181912 4.435107 -7.125000 0.000000 0.000000 95.040710 -16.776670 16.647037 -35.220182 42.264175 -11.417831 1.193313 -3.235727 5.084841 7.125000 0.000000 0.000000 
-0.614964 18.309107 5.762294 2.010333 -3.046605 3.438951 -15.857816 -9.261107 -3.455167 0.407645 6.260591 20.240804 -1.001513 8.320233 -14.815732 8.453600 -16.442900 -54.180500 3.003336 1.849578 -2.244588 0.094683 0.457213 1.363564 0.234043 -1.198154 5.871935 0.000000 0.000000 0.000000 -11.249315 1.065746 4.293302 2.393417 1.623157 -12.084147 8.435212 -6.229623 32.994992 1.513300 -1.733600 10.105300 -91.913803 12.639590 25.180577 25.234921 -33.763693 -6.680131 0.599155 0.172616 4.280139 -7.125000 0.000000 0.000000 95.053604 -16.760900 16.669116 -35.195691 42.252201 -11.413148 1.183017 -3.239661 4.974687 7.125000 0.000000 0.000000 
-0.614375 18.308910 5.763765 2.029185 -3.043532 3.442037 -15.875177 -9.302490 -3.453058 0.405278 6.253504 20.226656 -0.995751 8.308597 -14.856381 8.453700 -16.443000 -54.180900 3.000281 1.850312 -2.238741 0.094666 0.459990 1.364215 0.234870 -1.195662 5.873360 0.000000 0.000000 0.000000 -11.262807 1.060626 4.490152 2.412488 1.618668 -12.126386 8.302619 -6.177971 33.032112 1.482600 -1.721300 10.130100 -91.962273 12.546940 25.140845 25.198585 -33.739108 -6.673444 0.606055 0.167228 4.293317 -7.125000 0.000000 0.000000 95.040148 -16.685866 16.709914 -35.172570 42.249619 -11.407098 1.177576 -3.242018 4.955586 7.125000 0.000000 0.000000 
-0.614473 18.308714 5.764452 2.004337 -3.044587 3.428672 -15.843396 -9.316525 -3.455322 0.406041 6.250424 20.225231 -0.987947 8.281761 -14.876538 8.451600 -16.441500 -54.173300 2.997071 1.851217 -2.231442 0.094527 0.463424 1.365014 0.235911 -1.192634 5.875261 0.000000 0.000000 0.000000 -11.229488 1.083599 4.754028 2.388149 1.620913 -12.197610 8.211992 -6.162763 33.041898 1.457200 -1.722400 10.149500 -91.994519 12.439508 25.136656 25.166013 -33.712336 -6.647113 0.596698 0.171570 4.351853 -7.125000 0.000000 0.000000 95.042512 -16.603756 16.696995 -35.162226 42.255885 -11.403863 1.183882 -3.243078 5.124795 7.125000 0.000000 0.000000 
-0.614866 18.309009 5.764550 1.993885 -3.046742 3.487598 -15.828445 -9.310611 -3.502714 0.406473 6.258208 20.236291 -0.987268 8.281066 -14.877397 8.456100 -16.444700 -54.189500 3.001086 1.850215 -2.239077 0.094550 0.459775 1.364135 0.234791 -1.195923 5.873397 0.000000 0.000000 0.000000 -11.214621 1.066563 4.489754 2.389030 1.617770 -12.131777 8.207705 -6.165831 33.005517 1.456400 -1.727900 10.119800 -92.031717 12.504701 25.153100 25.202287 -33.734405 -6.644562 0.581987 0.182786 4.351323 -7.125000 0.000000 0.000000 95.055566 -16.663266 16.675434 -35.180725 42.260343 -11.412963 1.187369 -3.242702 5.216524 7.125000 0.000000 0.000000 
-0.614571 18.309892 5.764845 1.979370 -3.044228 3.550433 -15.806389 -9.269400 -3.563617 0.409282 6.269935 20.253375 -0.988928 8.271621 -14.815501 8.458200 -16.446200 -54.196900 3.005291 1.849249 -2.248931 0.094704 0.455346 1.363213 0.233442 -1.199768 5.870879 0.000000 0.000000 0.000000 -11.259197 1.027768 4.119078 2.398680 1.605583 -12.048851 8.146070 -6.124433 32.941360 1.442200 -1.718200 10.075200 -92.053799 12.611982 25.159047 25.249192 -33.770945 -6.659625 0.576824 0.190454 4.293380 -7.125000 0.000000 0.000000 95.087676 -16.750484 16.660466 -35.193963 42.258317 -11.417135 1.185563 -3.242433 5.278011 7.125000 0.000000 0.000000 
-0.613394 18.310382 5.765826 1.968905 -3.030358 3.569320 -15.780377 -9.222453 -3.610231 0.413794 6.277663 20.269900 -0.981554 8.225941 -14.758266 8.449600 -16.440200 -54.166400 3.003546 1.849765 -2.248650 0.094914 0.455897 1.363572 0.233632 -1.199034 5.870748 0.000000 0.000000 0.000000 -11.361851 1.018283 4.084955 2.399927 1.599625 -12.047797 8.073414 -6.079496 32.893823 1.423000 -1.704600 10.060100 -92.037990 12.626181 25.220215 25.287613 -33.810894 -6.674696 0.573738 0.191173 4.230610 -7.125000 0.000000 0.000000 95.120205 -16.768523 16.650012 -35.203301 42.268820 -11.423908 1.184060 -3.242975 5.345552 7.125000 0.000000 0.000000 
-0.612511 18.310186 5.766316 1.959658 -3.022426 3.567000 -15.777781 -9.202243 -3.625647 0.416747 6.279634 20.280177 -0.971374 8.183552 -14.752382 8.446900 -16.438300 -54.156900 3.003949 1.849741 -2.247218 0.094724 0.456386 1.363586 0.233765 -1.198739 5.871281 0.000000 0.000000 0.000000 -11.279299 1.031215 4.156363 2.377257 1.603028 -12.071878 8.146804 -6.091129 32.856664 1.446100 -1.705200 10.052500 -92.037871 12.625353 25.306958 25.328376 -33.852534 -6.689280 0.568733 0.192174 4.188423 -7.125000 0.000000 0.000000 95.084708 -16.771961 16.682080 -35.203150 42.268231 -11.427977 1.182295 -3.243113 5.317746 7.125000 0.000000 0.000000 
-0.612609 18.310284 5.766218 1.939154 -3.029099 3.577705 -15.779191 -9.228808 -3.624284 0.416440 6.279680 20.282929 -0.978813 8.211881 -14.751761 8.458200 -16.446200 -54.196900 3.007555 1.848998 -2.249134 0.094318 0.455015 1.363007 0.233294 -1.200309 5.871218 0.000000 0.000000 0.000000 -11.091963 1.041900 4.141955 2.348060 1.607367 -12.086961 8.181468 -6.086237 32.796109 1.462800 -1.705000 10.029200 -92.047624 12.638945 25.385586 25.360241 -33.882870 -6.702881 0.566406 0.194478 4.128827 -7.125000 0.000000 0.000000 95.030353 -16.762221 16.712515 -35.166242 42.234472 -11.409051 1.179203 -3.244164 5.252738 7.125000 0.000000 0.000000 
-0.612511 18.310971 5.766709 1.935998 -3.026086 3.596737 -15.788114 -9.256361 -3.634693 0.415370 6.281160 20.285833 -0.994813 8.270854 -14.738233 8.479900 -16.461100 -54.273300 3.008911 1.848776 -2.250154 0.094173 0.454438 1.362813 0.233075 -1.200926 5.871117 0.000000 0.000000 0.000000 -11.027231 1.032569 4.113566 2.354057 1.604505 -12.094994 8.082502 -6.027207 32.750495 1.443800 -1.690700 10.007900 -92.038295 12.641611 25.501107 25.375654 -33.896991 -6.711274 0.567011 0.198870 4.009449 -7.125000 0.000000 0.000000 94.998625 -16.744183 16.736604 -35.134401 42.208505 -11.391078 1.179194 -3.245161 5.218095 7.125000 0.000000 0.000000 
-0.612511 18.311952 5.767690 1.929887 -3.031551 3.568669 -15.788297 -9.246472 -3.626059 0.416005 6.279772 20.290368 -0.999770 8.292476 -14.751291 8.498300 -16.473800 -54.338300 3.006593 1.849435 -2.244270 0.094019 0.457145 1.363409 0.233875 -1.198579 5.872686 0.000000 0.000000 0.000000 -10.976925 1.043735 4.326010 2.350007 1.605686 -12.156051 8.062684 -5.998361 32.741540 1.441900 -1.678500 10.010500 -92.018083 12.614831 25.605124 25.382619 -33.911500 -6.721374 0.571641 0.202637 3.954569 -7.125000 0.000000 0.000000 94.974288 -16.698176 16.761964 -35.127458 42.211926 -11.389692 1.178481 -3.245374 5.210551 7.125000 0.000000 0.000000 
